<?xml version="1.0" encoding="UTF-8"?>
<svg width="440px" height="100px" viewBox="0 0 440 100" version="1.1" xmlns="http://www.w3.org/2000/svg" xmlns:xlink="http://www.w3.org/1999/xlink">
    <title>Type_Extended_White</title>
    <defs>
        <linearGradient x1="0.69854%" y1="0%" x2="0.69854%" y2="98.6029%" id="linearGradient-1">
            <stop stop-color="#FF6633" offset="0%"></stop>
            <stop stop-color="#FF0E83" offset="100%"></stop>
        </linearGradient>
    </defs>
    <g id="Page-1" stroke="none" stroke-width="1" fill="none" fill-rule="evenodd">
        <g id="Type_Extended_White">
            <path d="M137.399,72.3623 L137.399,88.8351 L143.919,88.8351 L143.919,72.4428 C143.919,68.0161 146.333,65.0381 150.384,65.0381 C154.891,65.0381 156.662,68.1234 156.662,72.2819 L156.662,88.8351 L163.208,88.8351 L163.208,70.7258 C163.208,64.0723 159.962,58.8407 152.504,58.8407 C148.023,58.8407 145.153,60.5041 142.309,63.643 C140.645,60.7187 137.721,58.8407 133.268,58.8407 C130.933,58.8407 127.312,59.6992 124.495,63.4552 L124.495,59.5114 L118.109,59.5114 L118.109,88.8351 L124.656,88.8351 L124.656,72.4965 C124.656,68.0698 127.07,65.0381 131.121,65.0381 C135.628,65.0381 137.399,68.2039 137.399,72.3623 Z M176.208,75.9306 L176.208,59.5114 L169.662,59.5114 L169.662,77.5403 C169.662,84.1938 173.311,89.4522 180.662,89.4522 C182.969,89.4522 186.806,88.6742 189.623,84.8913 L189.623,88.8351 L196.008,88.8351 L196.008,59.5114 L189.462,59.5114 L189.462,75.8232 C189.462,80.25 186.833,83.2548 182.674,83.2548 C178.167,83.2548 176.208,80.089 176.208,75.9306 Z M212.684,89.3449 C219.981,89.3449 223.388,84.7304 223.388,80.1963 C223.388,76.011 220.437,72.5233 215.071,71.3697 L211.047,70.5112 C209.41,70.1624 208.096,69.1966 208.096,67.4795 C208.096,65.4942 210.054,64.1528 212.12,64.1528 C215.581,64.1528 217.003,66.3527 217.432,68.2576 L222.959,66.7015 C222.449,63.8845 219.82,58.8675 212.12,58.8675 C206.137,58.8675 201.764,63.187 201.764,68.0429 C201.764,71.8794 204.179,75.2062 209.518,76.4671 L213.274,77.3525 C215.742,77.9427 216.762,78.989 216.762,80.5719 C216.762,82.6109 215.286,84.006 212.576,84.006 C209.223,84.006 207.237,81.8329 206.701,79.3378 L201.094,80.8134 C201.469,84.0865 204.715,89.3449 212.684,89.3449 Z M227.642,49.9873 C227.642,47.5995 229.574,45.641 231.935,45.641 C234.322,45.641 236.254,47.5995 236.254,49.9873 C236.254,52.375 234.322,54.2798 231.935,54.2798 C229.574,54.2798 227.642,52.375 227.642,49.9873 Z M228.688,88.8351 L228.688,59.5114 L235.235,59.5114 L235.235,88.8351 L228.688,88.8351 Z M246.196,88.8351 L253.574,78.6134 L260.978,88.8351 L268.49,88.8351 L257.383,73.8916 L268.142,59.5114 L260.764,59.5114 L253.654,69.2234 L246.625,59.5114 L239.14,59.5114 L249.871,73.9989 L238.737,88.8351 L246.196,88.8351 Z M291.31,72.3623 L291.31,88.8351 L297.829,88.8351 L297.829,72.4428 C297.829,68.0161 300.244,65.0381 304.295,65.0381 C308.802,65.0381 310.573,68.1234 310.573,72.2819 L310.573,88.8351 L317.119,88.8351 L317.119,70.7258 C317.119,64.0723 313.873,58.8407 306.414,58.8407 C301.934,58.8407 299.063,60.5041 296.219,63.643 C294.556,60.7187 291.632,58.8407 287.178,58.8407 C284.844,58.8407 281.222,59.6992 278.405,63.4552 L278.405,59.5114 L272.02,59.5114 L272.02,88.8351 L278.566,88.8351 L278.566,72.4965 C278.566,68.0698 280.981,65.0381 285.032,65.0381 C289.539,65.0381 291.31,68.2039 291.31,72.3623 Z M321.909,74.133 C321.909,82.0207 327.865,89.2912 336.343,89.2912 C338.677,89.2912 343.667,88.1376 346.082,84.3816 L346.082,88.8351 L352.548,88.8351 L352.548,59.5114 L346.082,59.5114 L346.082,63.7772 C343.667,60.1553 339.08,58.9212 336.504,58.9212 C327.329,58.9212 321.909,66.7283 321.909,74.133 Z M346.109,74.133 C346.109,79.15 342.621,83.3621 337.309,83.3621 C332.024,83.3621 328.509,79.1768 328.509,74.133 C328.509,69.0356 331.997,64.8503 337.309,64.8503 C342.621,64.8503 346.109,69.0356 346.109,74.133 Z M376.226,65.3869 L376.226,59.5114 L368.767,59.5114 L368.767,50.4165 L362.248,50.4165 L362.248,59.5114 L356.56,59.5114 L356.56,65.3869 L362.248,65.3869 L362.248,79.7402 C362.248,86.8766 365.494,89.1034 371.262,89.1034 C372.067,89.1034 374.16,89.0498 375.957,88.5132 L375.957,82.9597 C374.696,83.1206 373.891,83.1743 373.301,83.1743 C370.028,83.1743 368.767,81.9133 368.767,79.3914 L368.767,65.3869 L376.226,65.3869 Z M394.216,89.3449 C402.211,89.3449 406.745,84.1938 408.059,79.7402 L402.077,77.8086 C401.218,80.0622 399.367,83.3889 394.35,83.3889 C389.36,83.3889 385.657,79.4719 385.657,73.9989 C385.657,68.4454 389.521,64.8235 394.296,64.8235 C399.152,64.8235 401.299,68.0161 401.969,70.2965 L407.898,68.3649 C406.664,63.4016 401.594,58.8944 394.323,58.8944 C385.577,58.8944 378.95,65.7357 378.95,74.1062 C378.95,82.745 385.577,89.3449 394.216,89.3449 Z M432.542,72.416 L432.542,88.8351 L439.088,88.8351 L439.088,70.7795 C439.088,64.0991 435.547,58.8944 428.089,58.8944 C425.781,58.8944 422.106,59.6456 419.289,63.2138 L419.289,44.085 L412.743,44.085 L412.743,88.8351 L419.289,88.8351 L419.289,72.4965 C419.289,68.0698 421.918,65.0918 426.076,65.0918 C430.584,65.0918 432.542,68.2307 432.542,72.416 Z" id="Shape" fill="#000000"></path>
            <path d="M50,100 C77.6142,100 100,77.6142 100,50 C100,22.3858 77.6142,0 50,0 C22.3858,0 0,22.3858 0,50 C0,77.6142 22.3858,100 50,100 Z" id="Path" fill="url(#linearGradient-1)"></path>
            <g id="Group" transform="translate(23.270500, 25.194814)" fill="#FFFFFF">
                <path d="M44.6168,1.31008617 C44.6168,1.31008617 32.7245,10.4922862 26.7784,15.0832862 C26.7272,15.1228862 26.6247,15.2019862 26.6247,15.2019862 L8.4644,1.43088617 C7.4633,0.653686168 6.2982,0.304486168 5.159,0.304386168 C2.5124,0.303986168 0.0038,2.18798617 0.0038,4.96538617 L0.0038,15.4088862 L0,46.4542862 C0,49.2313862 2.5088,51.1153862 5.1552,51.1153862 C6.2946,51.1153862 7.4594,50.7661862 8.4606,49.9886862 L26.6247,36.0969862 C35.6628,43.1146862 44.613,49.9886862 44.613,49.9886862 C45.614,50.7659862 46.7793,51.1153862 47.9183,51.1153862 C50.5651,51.1153862 53.2495,49.2315862 53.2495,46.4542862 L53.2495,15.4088862 L53.2495,4.75438617 C53.2495,1.97728617 50.5685,0.183586168 47.9221,0.183586168 C46.7827,0.183586168 45.6179,0.532786168 44.6168,1.31008617 Z" id="Path" fill-opacity="0.7"></path>
                <polygon id="Path" fill-opacity="0.6" points="13.2974 25.6699862 26.625 36.0971862 39.8674 25.6671862 26.625 15.2021862"></polygon>
                <polygon id="Path" fill-opacity="0.6" points="0.0064 15.3720862 0.0064 35.9681862 13.297 25.6700862"></polygon>
                <polygon id="Path" fill-opacity="0.6" points="39.8672 25.6671862 53.2495 36.0971862 53.2495 15.2021862"></polygon>
                <path d="M44.3743,1.48958617 L26.6245,15.2019862 L39.8669,25.6669862 L53.2493,15.2019862 L53.2493,4.75448617 C53.2493,0.784486168 48.1779,-1.77521383 44.3743,1.48958617 Z" id="Path"></path>
                <path d="M8.4826,1.34938617 C5.1514,-1.23181383 0.0103,0.911486168 0.0103,4.88148617 L0.0103,15.3719862 L13.2972,25.6699862 L26.6248,15.2021862 L8.4826,1.34938617 Z" id="Path"></path>
            </g>
            <path d="M122.584,14.208 L120.616,14.208 L120.616,33 L131.488,33 L131.488,31.152 L122.584,31.152 L122.584,14.208 Z M136.096,32.136 L132.784,39.312 L134.8,39.312 L143.584,20.184 L141.568,20.184 L137.128,30.096 L132.424,20.184 L130.264,20.184 L136.096,32.136 Z M147.73,22.728 L147.73,20.184 L145.882,20.184 L145.882,33 L147.754,33 L147.754,26.736 C147.754,24.456 148.738,21.96 151.762,21.96 C152.002,21.96 152.242,21.984 152.482,22.008 L152.482,20.016 C152.338,19.992 151.978,19.992 151.858,19.992 C150.394,19.992 148.69,20.736 147.73,22.728 Z M154.303,15.6 C154.303,16.368 154.927,16.992 155.695,16.992 C156.487,16.992 157.111,16.368 157.111,15.6 C157.111,14.808 156.487,14.184 155.695,14.184 C154.927,14.184 154.303,14.808 154.303,15.6 Z M156.655,20.184 L154.759,20.184 L154.759,33 L156.655,33 L156.655,20.184 Z M161.62,26.52 C161.62,23.856 163.516,21.624 166.252,21.624 C168.916,21.624 170.188,23.616 170.476,24.6 L172.204,24.048 C171.676,21.888 169.3,19.968 166.324,19.968 C162.7,19.968 159.7,22.752 159.7,26.64 C159.7,30.48 162.532,33.216 166.228,33.216 C169.588,33.216 171.7,30.984 172.276,29.064 L170.524,28.488 C170.164,29.448 169.084,31.56 166.252,31.56 C163.348,31.56 161.62,29.184 161.62,26.52 Z M183.61,29.352 C183.61,27.024 181.498,25.92 179.41,25.656 C178.09,25.488 176.362,25.248 176.362,23.64 C176.362,22.536 177.394,21.6 178.786,21.6 C180.826,21.6 181.522,22.992 181.738,23.856 L183.442,23.448 C183.25,22.224 182.17,19.968 178.786,19.968 C176.674,19.968 174.49,21.384 174.49,23.784 C174.49,26.28 176.578,27.048 178.714,27.36 C180.034,27.552 181.714,27.912 181.714,29.472 C181.714,30.816 180.442,31.56 179.05,31.56 C177.058,31.56 176.194,30.168 175.93,29.016 L174.202,29.424 C174.442,30.864 175.594,33.216 179.074,33.216 C181.546,33.216 183.61,31.704 183.61,29.352 Z M206.014,26.568 C206.014,23.232 203.638,19.968 199.99,19.968 C197.566,19.968 196.054,21.36 195.022,22.968 L195.022,20.184 L193.174,20.184 L193.174,39.312 L195.046,39.312 L195.046,30.36 C196.078,31.992 197.614,33.192 199.99,33.192 C203.638,33.192 206.014,30.024 206.014,26.568 Z M199.606,31.536 C196.894,31.536 195.022,29.184 195.022,26.544 C195.022,23.976 196.966,21.624 199.606,21.624 C202.438,21.624 204.094,23.952 204.094,26.616 C204.094,29.328 202.438,31.536 199.606,31.536 Z M214.747,33.216 C218.491,33.216 221.395,30.336 221.395,26.544 C221.395,22.872 218.491,19.968 214.795,19.968 C211.003,19.968 208.147,22.848 208.147,26.64 C208.147,30.288 211.027,33.216 214.747,33.216 Z M214.795,31.56 C211.987,31.56 210.067,29.232 210.067,26.544 C210.067,23.856 211.963,21.6 214.747,21.6 C217.531,21.6 219.475,23.952 219.475,26.64 C219.475,29.304 217.531,31.56 214.795,31.56 Z M227.236,33 L229.3,33 L232.708,22.584 L232.732,22.584 L236.116,33 L238.204,33 L242.524,20.184 L240.58,20.184 L237.196,30.84 L237.172,30.84 L233.668,20.184 L231.796,20.184 L228.316,30.816 L228.292,30.816 L224.932,20.184 L222.94,20.184 L227.236,33 Z M245.703,27.168 L256.071,27.168 C256.095,26.976 256.095,26.76 256.095,26.544 C256.095,22.8 254.007,19.968 250.047,19.968 C246.447,19.968 243.807,23.088 243.807,26.568 C243.807,30.264 246.591,33.216 250.311,33.216 C252.855,33.216 255.159,31.824 255.927,29.352 L254.247,28.824 C253.647,30.624 252.183,31.56 250.287,31.56 C247.791,31.56 245.847,29.664 245.703,27.168 Z M254.199,25.584 L245.727,25.584 C246.039,23.448 247.815,21.6 250.047,21.6 C252.495,21.6 253.959,23.256 254.199,25.584 Z M260.929,22.728 L260.929,20.184 L259.081,20.184 L259.081,33 L260.953,33 L260.953,26.736 C260.953,24.456 261.937,21.96 264.961,21.96 C265.201,21.96 265.441,21.984 265.681,22.008 L265.681,20.016 C265.537,19.992 265.177,19.992 265.057,19.992 C263.593,19.992 261.889,20.736 260.929,22.728 Z M268.473,27.168 L278.841,27.168 C278.865,26.976 278.865,26.76 278.865,26.544 C278.865,22.8 276.777,19.968 272.817,19.968 C269.217,19.968 266.577,23.088 266.577,26.568 C266.577,30.264 269.361,33.216 273.081,33.216 C275.625,33.216 277.929,31.824 278.697,29.352 L277.017,28.824 C276.417,30.624 274.953,31.56 273.057,31.56 C270.561,31.56 268.617,29.664 268.473,27.168 Z M276.969,25.584 L268.497,25.584 C268.809,23.448 270.585,21.6 272.817,21.6 C275.265,21.6 276.729,23.256 276.969,25.584 Z M280.939,26.568 C280.939,30.072 283.267,33.192 286.939,33.192 C289.411,33.192 290.947,31.896 291.931,30.264 L291.931,33 L293.755,33 L293.755,13.464 L291.907,13.464 L291.907,22.872 C290.875,21.36 289.411,19.968 286.939,19.968 C283.315,19.968 280.939,23.232 280.939,26.568 Z M287.323,31.536 C284.515,31.536 282.835,29.256 282.835,26.616 C282.835,23.856 284.515,21.624 287.323,21.624 C289.987,21.624 291.931,24 291.931,26.544 C291.931,29.184 290.035,31.536 287.323,31.536 Z M317.063,26.568 C317.063,23.232 314.687,19.968 311.039,19.968 C308.639,19.968 307.151,21.312 306.095,22.944 L306.095,13.464 L304.223,13.464 L304.223,33 L306.071,33 L306.071,30.312 C307.103,31.992 308.615,33.192 311.039,33.192 C314.687,33.192 317.063,30.024 317.063,26.568 Z M310.655,31.536 C307.943,31.536 306.071,29.184 306.071,26.544 C306.071,23.976 308.015,21.624 310.655,21.624 C313.487,21.624 315.143,23.952 315.143,26.616 C315.143,29.328 313.487,31.536 310.655,31.536 Z M324.355,32.136 L321.043,39.312 L323.059,39.312 L331.843,20.184 L329.827,20.184 L325.387,30.096 L320.683,20.184 L318.523,20.184 L324.355,32.136 Z" id="Shape" fill="#000000" fill-rule="nonzero"></path>
        </g>
    </g>
</svg>